<svg id="Capa_1" enable-background="new 0 0 501 501" height="512" viewBox="0 0 501 501" width="512" xmlns="http://www.w3.org/2000/svg"><g><path d="m349.893 480c-30.377 13.499-64.009 21-99.393 21s-69.016-7.501-99.393-21c0-38.279-31.031-69.311-69.311-69.311h-21.296c-34.383-42.181-55-96.027-55-154.689 0-133.795 107.248-242.54 240.465-244.959 137.262-2.492 249.198 107.06 249.535 244.344.133 54.274-17.382 104.45-47.128 145.115h-18.978c-43.908 0-79.501 35.593-79.501 79.5z" fill="#037e73"/><path d="m440.5 410.689c-24.186 29.671-55.183 53.569-90.607 69.311h-198.786c-35.424-15.742-66.422-39.64-90.607-69.311v-240.689c0-11.046 8.954-20 20-20h340c11.046 0 20 8.954 20 20z" fill="#91cefb"/><path d="m467.266 460h-297.335c-24.932 0-47.261-15.434-56.072-38.757-12.8-33.882-19.358-69.801-19.358-106.02v-145.223c0-22.091 17.909-40 40-40h266c22.091 0 40 17.909 40 40v145.223c0 36.219 6.559 72.138 19.358 106.02l12.085 31.99c1.235 3.271-1.182 6.767-4.678 6.767z" fill="#e3f0fb"/><path d="m335.5 425c0 8.284-38.056 15-85 15s-85-6.716-85-15 38.056-15 85-15 85 6.716 85 15zm-181-165c-5.523 0-10 4.477-10 10s4.477 10 10 10 10-4.477 10-10-4.477-10-10-10zm-20-60c-5.523 0-10 4.477-10 10s4.477 10 10 10 10-4.477 10-10-4.477-10-10-10zm-10 130c-5.523 0-10 4.477-10 10s4.477 10 10 10 10-4.477 10-10-4.477-10-10-10zm260-130c0-5.523-4.477-10-10-10s-10 4.477-10 10 4.477 10 10 10 10-4.477 10-10zm-50 60c-5.523 0-10 4.477-10 10s4.477 10 10 10 10-4.477 10-10-4.477-10-10-10zm50 80c-5.523 0-10 4.477-10 10s4.477 10 10 10 10-4.477 10-10-4.477-10-10-10z" fill="#a1ade5"/><path d="m280.5 439.039c-9.329.621-19.439.961-30 .961s-20.671-.34-30-.961v-28.078c9.329-.621 19.439-.961 30-.961s20.671.34 30 .961z" fill="#c3573a"/><path d="m350.191 382.227c-58.718 44.792-140.664 44.792-199.382 0-4.235-3.231-4.672-9.446-.905-13.213l48.73-48.73c-5.82-3.083-11.424-6.722-16.732-10.915-2.049-1.618-2.196-4.679-.35-6.525l36.152-36.152c-6.354-2.694-12.444-6.206-18.109-10.537-2.118-1.619-2.341-4.727-.456-6.612l48.258-48.257c1.714-1.714 4.494-1.714 6.208 0l48.257 48.257c1.885 1.885 1.662 4.993-.456 6.612-5.665 4.331-11.755 7.843-18.109 10.537l36.152 36.152c1.846 1.846 1.699 4.907-.35 6.525-5.308 4.193-10.912 7.832-16.732 10.915l48.73 48.73c3.765 3.767 3.329 9.983-.906 13.213z" fill="#2cac8d"/><path d="m350.191 382.227c-13.324 10.164-27.845 18.022-43.019 23.573-41.668 5.131-84.922-5.653-119.923-32.353-4.235-3.231-4.672-9.446-.905-13.213l31.88-31.88c27.729 8.413 58.106 5.723 84.143-8.07l48.73 48.73c3.765 3.767 3.329 9.983-.906 13.213zm-66.894-115.534c-16.779 7.113-35.401 8.518-52.909 4.216l-16.435 23.42c-1.5 2.137-.827 5.127 1.471 6.367 32.7 17.656 71.278 17.282 102.987 1.111zm18.565-17.15-45.528-45.528-27.862 39.611c-1.534 2.18-.78 5.204 1.583 6.436 21.477 11.191 46.166 12.238 67.863 4.221 1.685-.978 3.342-2.019 4.97-3.123-.21-.588-.551-1.141-1.026-1.617z" fill="#04d481"/><path d="m304.5 278.333c0 10.125-8.208 18.333-18.333 18.333s-18.333-8.208-18.333-18.333 8.208-18.333 18.333-18.333 18.333 8.208 18.333 18.333z" fill="#d73131"/><path d="m294.919 269.581c3.58 3.58 4.547 8.416 2.161 10.803s-7.223 1.419-10.803-2.161-4.547-8.417-2.161-10.803 7.223-1.419 10.803 2.161z" fill="#fd4343"/><path d="m314.5 368.333c0 10.125-8.208 18.333-18.333 18.333s-18.333-8.208-18.333-18.333 8.208-18.333 18.333-18.333 18.333 8.208 18.333 18.333z" fill="#172a7d"/><path d="m304.919 359.581c3.58 3.58 4.547 8.416 2.161 10.803s-7.223 1.419-10.803-2.161-4.547-8.417-2.161-10.803 7.223-1.419 10.803 2.161z" fill="#54469b"/><path d="m244.5 318.333c0 10.125-8.208 18.333-18.333 18.333s-18.333-8.208-18.333-18.333 8.208-18.333 18.333-18.333 18.333 8.208 18.333 18.333z" fill="#fd4fb6"/><path d="m234.919 309.581c3.58 3.58 4.547 8.416 2.161 10.803-2.387 2.387-7.223 1.419-10.803-2.161s-4.547-8.417-2.161-10.803 7.223-1.419 10.803 2.161z" fill="#fd92d2"/><path d="m134.5 170h-74v-80c0-11.046 8.954-20 20-20h34c11.046 0 20 8.954 20 20z" fill="#d73131"/><path d="m440.5 170h-346v-80c0-11.046 8.954-20 20-20h306c11.046 0 20 8.954 20 20z" fill="#fd4343"/><path d="m204.5 130c0 5.523-4.477 10-10 10h-40c-5.523 0-10-4.477-10-10 0-5.523 4.477-10 10-10h40c5.523 0 10 4.477 10 10zm180-10h-40c-5.523 0-10 4.477-10 10 0 5.523 4.477 10 10 10h40c5.523 0 10-4.477 10-10 0-5.523-4.477-10-10-10z" fill="#a62b2b"/><path d="m252.245 182.394 7.087 12.647c.18.322.446.587.767.767l12.647 7.087c1.363.764 1.363 2.726 0 3.49l-12.647 7.087c-.321.18-.587.446-.767.767l-7.087 12.647c-.764 1.363-2.726 1.363-3.49 0l-7.087-12.647c-.18-.322-.446-.587-.767-.767l-12.647-7.087c-1.363-.764-1.363-2.726 0-3.49l12.647-7.087c.322-.18.587-.446.767-.767l7.087-12.647c.764-1.363 2.726-1.363 3.49 0zm-70.245-127.394c0-17.92-14.58-32.5-32.5-32.5s-32.5 14.58-32.5 32.5v15h15v-15c0-9.649 7.851-17.5 17.5-17.5s17.5 7.851 17.5 17.5v85h15zm190 85h-15v-85c0-9.649-7.851-17.5-17.5-17.5s-17.5 7.851-17.5 17.5v15h-15v-15c0-17.92 14.58-32.5 32.5-32.5s32.5 14.58 32.5 32.5zm-108.521-138.978-7.087 12.647c-.18.321-.446.587-.767.767l-12.647 7.087c-1.363.764-1.363 2.726 0 3.49l12.647 7.087c.321.18.587.446.767.767l7.087 12.647c.764 1.363 2.726 1.363 3.49 0l7.087-12.647c.18-.321.446-.587.767-.767l12.647-7.087c1.363-.764 1.363-2.726 0-3.49l-12.647-7.087c-.321-.18-.587-.446-.767-.767l-7.087-12.647c-.764-1.363-2.726-1.363-3.49 0z" fill="#fdbf43"/><path d="m227.911 49.789 7.087 12.647c.18.321.446.587.767.767l12.647 7.087c1.363.764 1.363 2.726 0 3.49l-12.647 7.087c-.322.18-.587.446-.767.767l-7.087 12.647c-.764 1.363-2.726 1.363-3.49 0l-7.087-12.647c-.18-.321-.446-.587-.767-.767l-12.647-7.087c-1.363-.764-1.363-2.726 0-3.49l12.647-7.087c.322-.18.587-.446.767-.767l7.087-12.647c.765-1.363 2.727-1.363 3.49 0z" fill="#ffdf8e"/><path d="m292.343 96.614 8.74 15.599c.18.321.446.587.767.767l15.599 8.74c1.363.764 1.363 2.726 0 3.49l-15.599 8.74c-.322.18-.587.446-.767.767l-8.74 15.599c-.764 1.363-2.726 1.363-3.49 0l-8.74-15.599c-.18-.322-.446-.587-.767-.767l-15.599-8.74c-1.363-.764-1.363-2.726 0-3.49l15.599-8.74c.322-.18.587-.446.767-.767l8.74-15.599c.764-1.363 2.726-1.363 3.49 0z" fill="#fff5f5"/></g></svg>